Coordinates
version=1
nRows=21
nColumns=22
inDegrees=yes

Units are S.I. units (second, meters, Newtons, ...)
If the header above contains a line with 'inDegrees', this indicates whether rotational values are in degrees (yes) or radians (no).

endheader
time	pelvis_tilt	pelvis_list	pelvis_rotation	pelvis_tx	pelvis_ty	pelvis_tz	hip_flexion_r	hip_adduction_r	hip_rotation_r	knee_angle_r	ankle_angle_r	subtalar_angle_r	hip_flexion_l	hip_adduction_l	hip_rotation_l	knee_angle_l	ankle_angle_l	subtalar_angle_l	lumbar_extension	lumbar_bending	lumbar_rotation
      0.01000000	     -0.91723843	     -2.45970757	     -3.33800258	      1.06451471	      0.92186343	      0.08938900	     -3.35889955	      5.33063503	      3.81410957	     -5.31130288	      1.59949652	     -4.68205408	     -1.87366468	     -2.40941336	    -10.80576939	     -9.99955895	     11.68754529	      3.01584178	     -3.44364947	     -1.05774022	      1.70219855
      0.02000000	     -0.92722084	     -2.46299243	     -3.33622568	      1.06445455	      0.92184516	      0.08939517	     -3.36585338	      5.33217949	      3.81601358	     -5.27239620	      1.59738542	     -4.68392816	     -1.85366715	     -2.41337156	    -10.78255142	    -10.00958178	     11.70958420	      3.01556908	     -3.45783294	     -1.05634257	      1.73694121
      0.03000000	     -0.93800772	     -2.46565406	     -3.33524309	      1.06439181	      0.92182667	      0.08939696	     -3.37269353	      5.33253977	      3.82552624	     -5.23147252	      1.58972327	     -4.68473662	     -1.83100058	     -2.41721139	    -10.77829018	    -10.02243241	     11.72316506	      3.01289963	     -3.47576073	     -1.05543409	      1.77383196
      0.04000000	     -0.94921225	     -2.46727007	     -3.33976221	      1.06432336	      0.92181081	      0.08940661	     -3.38036313	      5.33156713	      3.85066410	     -5.18653378	      1.57664983	     -4.68440385	     -1.80633905	     -2.42117657	    -10.78400348	    -10.03973481	     11.73593118	      3.00786748	     -3.49637677	     -1.05771648	      1.82404900
      0.05000000	     -0.96234077	     -2.46777152	     -3.37118206	      1.06425788	      0.92179696	      0.08943786	     -3.38693221	      5.32743203	      3.94308079	     -5.13924045	      1.54486209	     -4.68009524	     -1.78922348	     -2.42175642	    -10.84059573	    -10.04592103	     11.75528735	      2.99230697	     -3.51536673	     -1.05861905	      1.88703431
      0.06000000	     -0.97095818	     -2.46306666	     -3.37089321	      1.06419267	      0.92178963	      0.08941574	     -3.38511059	      5.32023657	      3.96027261	     -5.11712069	      1.54780018	     -4.67720848	     -1.77568539	     -2.41540157	    -10.84774665	    -10.04421860	     11.75077930	      2.98859112	     -3.54108895	     -1.06772416	      1.93563275
      0.07000000	     -0.97904106	     -2.43918823	     -3.38677913	      1.06413671	      0.92178497	      0.08939371	     -3.38237038	      5.28950005	      4.03356480	     -5.09772090	      1.55131422	     -4.67014095	     -1.77295307	     -2.38550352	    -10.88083827	    -10.02431962	     11.73971044	      2.98108170	     -3.56421530	     -1.09761826	      1.98991124
      0.08000000	     -0.98740488	     -2.43805077	     -3.37099624	      1.06409097	      0.92177758	      0.08930321	     -3.37308730	      5.28469302	      4.03947000	     -5.09267649	      1.55243680	     -4.66982674	     -1.76490759	     -2.38022120	    -10.88901343	    -10.01023393	     11.73955780	      2.98068776	     -3.58656985	     -1.09328888	      1.99559528
      0.09000000	     -0.98209426	     -2.39220765	     -3.40193314	      1.06407389	      0.92179474	      0.08926581	     -3.38053587	      5.22697305	      4.15535899	     -5.08530706	      1.58730101	     -4.65689440	     -1.79772378	     -2.31892991	    -10.93783057	     -9.95297316	     11.69033959	      2.96552729	     -3.61229468	     -1.14672189	      2.04852972
      0.10000000	     -0.97706732	     -2.38327001	     -3.39079192	      1.06402704	      0.92180598	      0.08917112	     -3.37304174	      5.21338971	      4.19493517	     -5.10531757	      1.58857399	     -4.65492493	     -1.80523932	     -2.30339067	    -10.94626215	     -9.93706490	     11.68550617	      2.96253589	     -3.64534355	     -1.15557590	      2.03245861
      0.11000000	     -0.94749686	     -2.34427410	     -3.40465160	      1.06401567	      0.92184819	      0.08907849	     -3.40629867	      5.16061790	      4.28396851	     -5.09875361	      1.63410300	     -4.64585457	     -1.85440765	     -2.24713680	    -10.96253709	     -9.89671297	     11.64852577	      2.94768796	     -3.69637401	     -1.19734006	      2.04275654
      0.12000000	     -0.93582604	     -2.33836630	     -3.39728829	      1.06397445	      0.92186720	      0.08897535	     -3.39974656	      5.14978728	      4.32659587	     -5.13046656	      1.63108765	     -4.64521823	     -1.86654694	     -2.23385711	    -10.96492076	     -9.88772581	     11.64544172	      2.94497187	     -3.73167366	     -1.20343121	      2.00879708
      0.13000000	     -0.91642490	     -2.32436952	     -3.39638995	      1.06394275	      0.92189619	      0.08886301	     -3.40497052	      5.12789890	      4.38672310	     -5.15656405	      1.64253772	     -4.64363050	     -1.88492335	     -2.20925820	    -10.96291660	     -9.88487101	     11.63777459	      2.94073828	     -3.77283306	     -1.21769475	      1.96951144
      0.14000000	     -0.83593945	     -2.29111775	     -3.41650094	      1.06399373	      0.92200954	      0.08876032	     -3.49718943	      5.07657131	      4.46943549	     -5.15016386	      1.69180279	     -4.63515707	     -2.00466855	     -2.15167923	    -10.97528317	     -9.82270534	     11.59036692	      2.90590925	     -3.87204702	     -1.25962934	      1.96576180
      0.15000000	     -0.82193460	     -2.28689130	     -3.41427527	      1.06396945	      0.92203412	      0.08863954	     -3.49468415	      5.06567552	      4.51581008	     -5.18041565	      1.68815276	     -4.63486669	     -2.00740370	     -2.14019240	    -10.96496554	     -9.84182229	     11.58926337	      2.90453786	     -3.90450192	     -1.26428433	      1.92218056
      0.16000000	     -0.80428443	     -2.28086105	     -3.41238238	      1.06395537	      0.92206541	      0.08850988	     -3.49994864	      5.05160644	      4.56406188	     -5.20496601	      1.69421429	     -4.63355843	     -2.01212349	     -2.12607668	    -10.95568629	     -9.86505480	     11.58571352	      2.90076791	     -3.93961545	     -1.27299733	      1.87914673
      0.17000000	     -0.78342745	     -2.27569686	     -3.41096687	      1.06393545	      0.92210548	      0.08836937	     -3.50821927	      5.03770959	      4.60822890	     -5.22898774	      1.70264733	     -4.63157102	     -2.01627477	     -2.11215848	    -10.94445988	     -9.89529077	     11.57961642	      2.89453803	     -3.98027129	     -1.28199934	      1.84089874
      0.18000000	     -0.76030309	     -2.27280852	     -3.40882331	      1.06389747	      0.92215283	      0.08820936	     -3.51660725	      5.02497315	      4.64543275	     -5.25507776	      1.70970488	     -4.62905695	     -2.01733910	     -2.09983459	    -10.93064583	     -9.93372055	     11.57196586	      2.88636163	     -4.02716054	     -1.28868828	      1.80663636
      0.19000000	     -0.73602066	     -2.27209565	     -3.40421008	      1.06383340	      0.92220556	      0.08803189	     -3.52288794	      5.01430818	      4.67426751	     -5.28341197	      1.71460685	     -4.62594240	     -2.01378564	     -2.08953722	    -10.91476554	     -9.97960883	     11.56396827	      2.87689226	     -4.08044615	     -1.29277967	      1.77605576
      0.20000000	     -0.71051754	     -2.27321518	     -3.39687143	      1.06373582	      0.92226419	      0.08784288	     -3.52599451	      5.00547091	      4.69608498	     -5.31592805	      1.71770042	     -4.62194364	     -2.00463004	     -2.08169671	    -10.89694386	    -10.03342190	     11.55620741	      2.86625489	     -4.14181527	     -1.29621934	      1.74737359
      0.21000000	     -0.68524912	     -2.27582534	     -3.38850434	      1.06361151	      0.92232626	      0.08764766	     -3.52505797	      4.99797509	      4.71057318	     -5.35186568	      1.71937098	     -4.61702254	     -1.99046163	     -2.07601779	    -10.87873885	    -10.09272309	     11.54942268	      2.85497671	     -4.20744828	     -1.29933318	      1.72200066
